# xmcd CD database file
#
# Track frame offsets:
#	150
#	36624
#	80224
#	101871
#	137003
#	169837
#	193322
#	203385
#
# Disc length: 3097 seconds
#
# Revision: 0
# Processed by: cddbd v1.5.2PL0 Copyright (c) Steve Scherf et al.
# Submitted via: CDex 1.70beta3
#
DISCID=760c1708
DTITLE=Zoot Sims - Zoot Sims and Kenny Drew Trio Live in Denmark
DYEAR=1978
DGENRE=Jazz
TTITLE0=Flower Waltz
TTITLE1=Groovin' High
TTITLE2=Come Rain Or Come Shine
TTITLE3=Fred
TTITLE4=I Wonder (Where Our Love Has Gone)
TTITLE5=In A Mellow Tone
TTITLE6=I Got It Bad (And That Ain't Good)
TTITLE7=Caravan
EXTD=YEAR: 1978
EXTT0=
EXTT1=
EXTT2=
EXTT3=
EXTT4=
EXTT5=
EXTT6=
EXTT7=
PLAYORDER=
